 <!DOCTYPE svg PUBLIC "-//W3C//DTD SVG 1.1//EN" "http://www.w3.org/Graphics/SVG/1.1/DTD/svg11.dtd">
<svg xmlns="http://www.w3.org/2000/svg" width="865.76" height="682.89" viewBox="0 0 865.76 682.89">
<defs>
<style xmlns="http://www.w3.org/1999/xhtml">*, ::after, ::before { box-sizing: border-box; }
img, svg { vertical-align: middle; }
</style>
<style xmlns="http://www.w3.org/1999/xhtml">*, body, html { }
img, svg { max-width: 100%; }
</style>
</defs>
<path d="M194.69,644.22s-47.18,3.28-46.36-56.15c0,0,1.84-49.62,18.94-94.33,0,0,9.78-22.35-8.55-61.61,0,0-67.82-115-43.07-165.75,0,0,118.22-226.27,290.51-235.54,0,0,196.12-26.17,306.09,19.63,0,0,77,19.63,25.66,129.22,0,0-74.51,109.59-27.49,175.84,0,0,111.8,144.82-36.66,288.73Z" fill="#0071f2" data-primary="true"/>
<path d="M194.69,644.22s-47.18,3.28-46.36-56.15c0,0,1.84-49.62,18.94-94.33,0,0,9.78-22.35-8.55-61.61,0,0-67.82-115-43.07-165.75,0,0,118.22-226.27,290.51-235.54,0,0,196.12-26.17,306.09,19.63,0,0,77,19.63,25.66,129.22,0,0-74.51,109.59-27.49,175.84,0,0,111.8,144.82-36.66,288.73Z" fill="#fff" opacity="0.7"/>
<rect x="251.82" y="179.17" width="360.35" height="451.93" fill="#ccc"/>
<rect x="280.69" y="193.1" width="304.61" height="433.02" fill="#b3b3b3"/>
<rect x="295.62" y="208.03" width="128.41" height="387.23" fill="#fff" opacity="0.42"/>
<rect x="452.4" y="208.53" width="113.48" height="387.23" fill="#fff" opacity="0.42"/>
<line x1="308.56" y1="257.75" x2="298.61" y2="287.67" fill="none" stroke="#e6e6e6" stroke-linecap="round" stroke-linejoin="round"/>
<line x1="321.48" y1="261.94" x2="299.6" y2="323.51" fill="none" stroke="#e6e6e6" stroke-linecap="round" stroke-linejoin="round"/>
<line x1="313.16" y1="328.49" x2="297.61" y2="376.27" fill="none" stroke="#e6e6e6" stroke-linecap="round" stroke-linejoin="round"/>
<line x1="334.52" y1="264.28" x2="320" y2="307.93" fill="none" stroke="#e6e6e6" stroke-linecap="round" stroke-linejoin="round"/>
<line x1="312.23" y1="373.98" x2="295.62" y2="423.72" fill="none" stroke="#e6e6e6" stroke-linecap="round" stroke-linejoin="round"/>
<line x1="329.08" y1="323.51" x2="318.63" y2="354.8" fill="none" stroke="#e6e6e6" stroke-linecap="round" stroke-linejoin="round"/>
<line x1="348.61" y1="265.01" x2="334.52" y2="307.2" fill="none" stroke="#e6e6e6" stroke-linecap="round" stroke-linejoin="round"/>
<line x1="302.96" y1="449.46" x2="295.62" y2="471.33" fill="none" stroke="#e6e6e6" stroke-linecap="round" stroke-linejoin="round"/>
<line x1="322.5" y1="391.28" x2="307.59" y2="435.68" fill="none" stroke="#e6e6e6" stroke-linecap="round" stroke-linejoin="round"/>
<line x1="338.18" y1="344.56" x2="327.54" y2="376.27" fill="none" stroke="#e6e6e6" stroke-linecap="round" stroke-linejoin="round"/>
<line x1="352.97" y1="300.5" x2="342.39" y2="332.02" fill="none" stroke="#e6e6e6" stroke-linecap="round" stroke-linejoin="round"/>
<line x1="365.3" y1="263.78" x2="357.28" y2="287.67" fill="none" stroke="#e6e6e6" stroke-linecap="round" stroke-linejoin="round"/>
<line x1="305.38" y1="558.01" x2="295.62" y2="587.08" fill="none" stroke="#e6e6e6" stroke-linecap="round" stroke-linejoin="round"/>
<line x1="324.96" y1="499.7" x2="310.91" y2="541.54" fill="none" stroke="#e6e6e6" stroke-linecap="round" stroke-linejoin="round"/>
<line x1="346.96" y1="434.17" x2="330.59" y2="482.94" fill="none" stroke="#e6e6e6" stroke-linecap="round" stroke-linejoin="round"/>
<line x1="367.18" y1="373.98" x2="351.03" y2="422.06" fill="none" stroke="#e6e6e6" stroke-linecap="round" stroke-linejoin="round"/>
<line x1="386.13" y1="317.55" x2="371.82" y2="360.16" fill="none" stroke="#e6e6e6" stroke-linecap="round" stroke-linejoin="round"/>
<line x1="396.23" y1="287.46" x2="389.36" y2="307.93" fill="none" stroke="#e6e6e6" stroke-linecap="round" stroke-linejoin="round"/>
<line x1="398.39" y1="324.94" x2="409.65" y2="291.42" fill="none" stroke="#e6e6e6" stroke-linecap="round" stroke-linejoin="round"/>
<line x1="382.36" y1="372.67" x2="396.03" y2="331.95" fill="none" stroke="#e6e6e6" stroke-linecap="round" stroke-linejoin="round"/>
<line x1="371" y1="406.49" x2="378.97" y2="382.74" fill="none" stroke="#e6e6e6" stroke-linecap="round" stroke-linejoin="round"/>
<line x1="356.56" y1="449.46" x2="367.57" y2="416.68" fill="none" stroke="#e6e6e6" stroke-linecap="round" stroke-linejoin="round"/>
<line x1="336.54" y1="509.08" x2="351.03" y2="465.92" fill="none" stroke="#e6e6e6" stroke-linecap="round" stroke-linejoin="round"/>
<line x1="316.25" y1="569.47" x2="331.65" y2="523.63" fill="none" stroke="#e6e6e6" stroke-linecap="round" stroke-linejoin="round"/>
<line x1="307.59" y1="595.26" x2="313.44" y2="577.85" fill="none" stroke="#e6e6e6" stroke-linecap="round" stroke-linejoin="round"/>
<line x1="333.45" y1="562.1" x2="322.5" y2="595.26" fill="none" stroke="#e6e6e6" stroke-linecap="round" stroke-linejoin="round"/>
<line x1="352.81" y1="503.45" x2="341.07" y2="539.02" fill="none" stroke="#e6e6e6" stroke-linecap="round" stroke-linejoin="round"/>
<line x1="369.99" y1="451.42" x2="358.18" y2="487.19" fill="none" stroke="#e6e6e6" stroke-linecap="round" stroke-linejoin="round"/>
<line x1="392.7" y1="382.61" x2="374.18" y2="438.71" fill="none" stroke="#e6e6e6" stroke-linecap="round" stroke-linejoin="round"/>
<line x1="410.57" y1="328.49" x2="396.67" y2="370.61" fill="none" stroke="#e6e6e6" stroke-linecap="round" stroke-linejoin="round"/>
<line x1="422.23" y1="293.17" x2="414.61" y2="316.26" fill="none" stroke="#e6e6e6" stroke-linecap="round" stroke-linejoin="round"/>
<line x1="418.42" y1="345.38" x2="424.03" y2="328.49" fill="none" stroke="#e6e6e6" stroke-linecap="round" stroke-linejoin="round"/>
<line x1="400.94" y1="398.02" x2="413.79" y2="359.34" fill="none" stroke="#e6e6e6" stroke-linecap="round" stroke-linejoin="round"/>
<line x1="388.28" y1="436.15" x2="394.74" y2="416.68" fill="none" stroke="#e6e6e6" stroke-linecap="round" stroke-linejoin="round"/>
<line x1="369.03" y1="494.12" x2="378.97" y2="464.17" fill="none" stroke="#e6e6e6" stroke-linecap="round" stroke-linejoin="round"/>
<line x1="354.12" y1="539.02" x2="362.85" y2="512.73" fill="none" stroke="#e6e6e6" stroke-linecap="round" stroke-linejoin="round"/>
<line x1="335.44" y1="595.26" x2="346.95" y2="560.6" fill="none" stroke="#e6e6e6" stroke-linecap="round" stroke-linejoin="round"/>
<line x1="463.95" y1="291.42" x2="457.88" y2="309.57" fill="none" stroke="#e6e6e6" stroke-linecap="round" stroke-linejoin="round"/>
<line x1="461.13" y1="342.82" x2="453.9" y2="364.32" fill="none" stroke="#e6e6e6" stroke-linecap="round" stroke-linejoin="round"/>
<line x1="480.08" y1="286.51" x2="468.83" y2="319.95" fill="none" stroke="#e6e6e6" stroke-linecap="round" stroke-linejoin="round"/>
<line x1="491.98" y1="289.55" x2="468.83" y2="360.34" fill="none" stroke="#e6e6e6" stroke-linecap="round" stroke-linejoin="round"/>
<line x1="468.81" y1="398.84" x2="460.86" y2="422.06" fill="none" stroke="#e6e6e6" stroke-linecap="round" stroke-linejoin="round"/>
<line x1="489.33" y1="338.85" x2="477.31" y2="373.98" fill="none" stroke="#e6e6e6" stroke-linecap="round" stroke-linejoin="round"/>
<line x1="502.16" y1="301.33" x2="493.06" y2="327.94" fill="none" stroke="#e6e6e6" stroke-linecap="round" stroke-linejoin="round"/>
<line x1="503.34" y1="416.68" x2="474.8" y2="499.7" fill="none" stroke="#e6e6e6" stroke-linecap="round" stroke-linejoin="round"/>
<line x1="521.33" y1="364.32" x2="508.46" y2="401.77" fill="none" stroke="#e6e6e6" stroke-linecap="round" stroke-linejoin="round"/>
<line x1="537.41" y1="317.55" x2="528.12" y2="344.56" fill="none" stroke="#e6e6e6" stroke-linecap="round" stroke-linejoin="round"/>
<line x1="520.18" y1="414.79" x2="487.74" y2="513.64" fill="none" stroke="#e6e6e6" stroke-linecap="round" stroke-linejoin="round"/>
<line x1="529.03" y1="387.85" x2="524.33" y2="402.15" fill="none" stroke="#e6e6e6" stroke-linecap="round" stroke-linejoin="round"/>
<line x1="542.45" y1="346.94" x2="533.48" y2="374.27" fill="none" stroke="#e6e6e6" stroke-linecap="round" stroke-linejoin="round"/>
<line x1="551.39" y1="319.72" x2="545.74" y2="336.93" fill="none" stroke="#e6e6e6" stroke-linecap="round" stroke-linejoin="round"/>
<line x1="528.35" y1="416.68" x2="492.72" y2="521.6" fill="none" stroke="#e6e6e6" stroke-linecap="round" stroke-linejoin="round"/>
<line x1="542.86" y1="373.98" x2="532.77" y2="403.69" fill="none" stroke="#e6e6e6" stroke-linecap="round" stroke-linejoin="round"/>
<line x1="553.44" y1="342.82" x2="545.74" y2="365.49" fill="none" stroke="#e6e6e6" stroke-linecap="round" stroke-linejoin="round"/>
<line x1="561.01" y1="320.52" x2="555.86" y2="335.7" fill="none" stroke="#e6e6e6" stroke-linecap="round" stroke-linejoin="round"/>
<path d="M444.94,536.53c7.46,23.4,12.52,47.59,12.52,47.59L435,551.46a39.24,39.24,0,0,0,5.49-14.83Z" fill="#2f2e41" data-secondary="true"/>
<path d="M444.94,536.53c7.46,23.4,12.52,47.59,12.52,47.59L435,551.46a39.24,39.24,0,0,0,5.49-14.83Z" opacity="0.2"/>
<path d="M511.63,547.48s-18.34-20.29-29.08-45c0,0-18.42-41.43-44.94-40,0,0-21.45-1.59-28,35.24l-5.53,13.94s24.89,27.87,40.82,24.88c0,0,14.43,74.16,36.33,84.12H536s3.44-1.41,3.46-3.44l-9.93-55.79Z" fill="#2f2e41" data-secondary="true"/>
<g opacity="0.2">
<path d="M489.73,565.9a.51.51,0,0,1-.39-.19c-10.47-13.33-31.36-71.57-33.73-78.25a4.4,4.4,0,0,1-3,.22c-3-.77-5.68-4.16-6.94-6-.38,2.36-1.26,4-2.64,5a5.08,5.08,0,0,1-3.5.75c3.73,27.29-4.16,44.41-4.24,44.58a.5.5,0,0,1-.66.24.51.51,0,0,1-.24-.67c.08-.17,8-17.33,4.06-44.71a.51.51,0,0,1,.17-.45.49.49,0,0,1,.48-.09,4.26,4.26,0,0,0,3.38-.49c1.37-.92,2.16-2.81,2.35-5.59a.5.5,0,0,1,.93-.22c0,.06,3.42,5.79,7.1,6.73a3.43,3.43,0,0,0,2.75-.39.53.53,0,0,1,.43,0,.5.5,0,0,1,.3.3c.22.65,23,64.79,33.76,78.5a.49.49,0,0,1-.08.7A.51.51,0,0,1,489.73,565.9Z"/>
</g>
<g opacity="0.2">
<path d="M516.61,592.78a.5.5,0,0,1-.48-.36c-5.09-17.32-11.18-22.59-15.39-24a8.9,8.9,0,0,0-7.72,1,.5.5,0,0,1-.7-.09.51.51,0,0,1,.1-.7,9.76,9.76,0,0,1,8.63-1.18c6.45,2.11,11.85,10.39,16,24.63a.51.51,0,0,1-.34.62Z"/>
</g>
<g opacity="0.2">
<path d="M444.94,537h0a.5.5,0,0,1-.46-.53c0-.28,2-28.07,2-46.75a.5.5,0,0,1,.5-.5.5.5,0,0,1,.5.5c0,18.71-2,46.54-2,46.82A.49.49,0,0,1,444.94,537Z"/>
</g>
<g opacity="0.2">
<path d="M446.22,515.07a.5.5,0,0,1-.42-.77c5.13-7.81,5.6-19.27,5.61-19.38a.47.47,0,0,1,.51-.48.49.49,0,0,1,.48.51c0,.48-.49,11.85-5.77,19.9A.49.49,0,0,1,446.22,515.07Z"/>
</g>
<path d="M421,605.87c-1.35,9.45-11.35,8.31-11.35,8.31-30.32,2-62.27,0-62.27,0a7.78,7.78,0,0,1,2.1-5.39,9.64,9.64,0,0,1,5.6-2.83c20.87-3.31,33.54-13.68,33.54-13.68,7.4-6,7.61-1.89,7.61-1.89l22.83,2.88C421,598.79,421.42,602.87,421,605.87Z" fill="#0071f2" data-primary="true"/>
<path d="M418.06,619.16H351.72c-6.62,0-4.34-5-4.34-5s31.95,2,62.27,0c0,0,10,1.14,11.35-8.31h.15C425.23,619.44,418.06,619.16,418.06,619.16Z" fill="#2f2e41" data-secondary="true"/>
<path d="M508.15,620.65,439.92,620h0l-49.7.63c-12.94-6.47,0-17.42,0-17.42,1.37.07,113.91,3.34,113.91,3.34C510.51,609.91,508.15,620.65,508.15,620.65Z" fill="#5d6166"/>
<line x1="355.28" y1="577.43" x2="349.35" y2="595.26" fill="none" stroke="#e6e6e6" stroke-linecap="round" stroke-linejoin="round"/>
<line x1="374.14" y1="520.67" x2="360.87" y2="560.59" fill="none" stroke="#e6e6e6" stroke-linecap="round" stroke-linejoin="round"/>
<line x1="393.43" y1="462.67" x2="378.97" y2="506.15" fill="none" stroke="#e6e6e6" stroke-linecap="round" stroke-linejoin="round"/>
<line x1="407.39" y1="420.67" x2="397.82" y2="449.46" fill="none" stroke="#e6e6e6" stroke-linecap="round" stroke-linejoin="round"/>
<line x1="423.04" y1="374.27" x2="413.79" y2="401.42" fill="none" stroke="#e6e6e6" stroke-linecap="round" stroke-linejoin="round"/>
<line x1="383.55" y1="531.79" x2="362.17" y2="595.26" fill="none" stroke="#e6e6e6" stroke-linecap="round" stroke-linejoin="round"/>
<line x1="397.82" y1="489.44" x2="390.32" y2="511.69" fill="none" stroke="#e6e6e6" stroke-linecap="round" stroke-linejoin="round"/>
<line x1="412.14" y1="446.94" x2="402.61" y2="475.23" fill="none" stroke="#e6e6e6" stroke-linecap="round" stroke-linejoin="round"/>
<line x1="424.03" y1="411.63" x2="416.14" y2="435.06" fill="none" stroke="#e6e6e6" stroke-linecap="round" stroke-linejoin="round"/>
<line x1="377.55" y1="595.26" x2="393.1" y2="548.62" fill="none" stroke="#e6e6e6" stroke-linecap="round" stroke-linejoin="round"/>
<line x1="535.18" y1="433.72" x2="508.65" y2="513.64" fill="none" stroke="#e6e6e6" stroke-linecap="round" stroke-linejoin="round"/>
<line x1="565.39" y1="342.73" x2="542.51" y2="411.63" fill="none" stroke="#e6e6e6" stroke-linecap="round" stroke-linejoin="round"/>
<ellipse cx="568.38" cy="441.48" rx="24.37" ry="14.05" transform="translate(99.46 987.45) rotate(-87.18)" fill="#f9b499"/>
<path d="M606.57,431v0c-.11.64-.23,1.3-.37,2L606,446.94s-14.93,5-27.76,10.95c0,0-5.06-6.78-6.46-12.84L564.39,439a30.18,30.18,0,0,1-5.68-13.85,2.33,2.33,0,0,1-.05-.28l-.65,1.53L556,431a10.77,10.77,0,0,1,1-10s-4,.43-1.81-3.77l6.15-6.18s-3-3,8-7c0,0,16.92-7,28.87,3C598.24,407.12,609.34,413.59,606.57,431Z" fill="#2f2e41" data-secondary="true"/>
<path d="M606.57,431v0A41.81,41.81,0,0,1,597.24,444c-4-2-7-8-7-8a93.32,93.32,0,0,0-4.85-10.45c-5.71-10.38-20.59-10.75-26.62-.56l-.09.15c-.25.43-.49.85-.7,1.25a29.19,29.19,0,0,0-2,4.64,10.77,10.77,0,0,1,1-10s-4,.43-1.81-3.77l6.15-6.18s-3-3,8-7c0,0,16.92-7,28.87,3C598.24,407.12,609.34,413.59,606.57,431Z" opacity="0.2"/>
<path d="M440.47,536.63S439,545.49,435,551.46l-15.92,41.81-22.83-2.88,7.13-25-2.22-2s-14.24,9.12-39,22c0,0-14.79,7.88-18.77,12.86a84.1,84.1,0,0,1-16.92-15.93l48.23-41.53,29.41-29.14S422.07,532.75,440.47,536.63Z" fill="#f9b499"/>
<path d="M401.14,563.41l8.1-39.84a1.72,1.72,0,0,1,2.29-1.27h0a1.72,1.72,0,0,1,1.08,2l-9.25,41.11Z" fill="#f7a48b"/>
<path d="M265.14,605.66s-2.87,3.52,5.34,5l22.78,8.48s6.84,3.27,10.35.17a5.75,5.75,0,0,1,3.48-1.55c1.93-.09,4.55.26,6.21,2.4a8.69,8.69,0,0,0,2.12,2c2.93,1.86,9.52,5,14.05-1.06l1-4-9.95-4-23.75-2.5-27-7.45Z" fill="#2f2e41" data-secondary="true"/>
<path d="M423,455.51s-13.91,4.37-14.9,17.31c0,0-8,29.5,0,20.23,0,0,0,4.66,3,2.67,0,0,1.52,1.08.76-7.42,0,0,1,9.95,3.34,4.86a11.66,11.66,0,0,0,1-4l.7-8.94s1.28-7.41,5.7-8.91C422.59,471.33,421,461.09,423,455.51Z" fill="#f9b499"/>
<path d="M508.15,620.65,439.92,620h0c-46.8-4.13-49.7-16.79-49.7-16.79,1.37.07,113.91,3.34,113.91,3.34C510.51,609.91,508.15,620.65,508.15,620.65Z" opacity="0.2"/>
<rect x="197.07" y="620.15" width="472.84" height="26.88" fill="#b3b3b3"/>
<ellipse cx="568.87" cy="438.98" rx="4.48" ry="7.96" fill="#f9b499"/>
<path d="M504.78,539.13s.17-10.48,12.47-15.5c0,0,17-6.8,14.67,6a51.68,51.68,0,0,1-20.29,17.81Z" fill="#0071f2" data-primary="true"/>
<path d="M506.1,540.83s4.26-17.16,19.83-17.2c0,0,5.61,1,2.62,5.93l-16.92,17.92Z" opacity="0.2"/>
<path d="M575.62,459.85c-3.39-1.47-15.36-5.6-40.1-4,0,0-18.45,2.22-44.06-.38,0,0-35.57-4.6-43.54-4.6,0,0,2.14-5-9.38,0a16.24,16.24,0,0,1-7.54,0s-3.6-7-8.77,6.47c0,0-1.18,14,1.8,17.71l60.73,14.65s1.92,3.27,34.8,5.61l26.91,2.35s-6,33.85-34.84,49.77c0,0-1,50.77,31.86,72.67,0,0,2,2,5-2,0,0,3-3,10.95-4,0,0,5-1,6-7.47,0,0,30.86-29.36,38.82-57.24,0,0,8.1-13.93,16-49.77,0,0,9.06,3.65,8.08-31-.07-2.59-.08-5.18.06-7.77.39-7.07-.25-23.95-16.18-16l-6.18,2c-4.14,1.21-8.58,2.68-13.23,4.48-5.34,2.07-10.19,4.28-14.53,6.47l-.93,1.44A1.36,1.36,0,0,1,575.62,459.85Z" fill="#0071f2" data-primary="true"/>
<g opacity="0.2">
<path d="M596.25,484.27a.51.51,0,0,1-.45-.27c-10.16-19.41-17.83-23.27-18.95-23.21a.49.49,0,0,1-.61-.17.5.5,0,0,1,.13-.69,1.21,1.21,0,0,1,1-.06c3,.76,10.39,6.59,19.34,23.67a.5.5,0,0,1-.21.67A.53.53,0,0,1,596.25,484.27ZM576.83,460.8Zm.1-.05Z"/>
</g>
<g opacity="0.2">
<path d="M580.81,463a.5.5,0,0,1-.24-.06.49.49,0,0,1-.2-.67c.15-.27,4-6.84,35.72-10.8a.5.5,0,0,1,.56.43.49.49,0,0,1-.43.55c-30.94,3.87-34.94,10.23-35,10.3A.5.5,0,0,1,580.81,463Z"/>
</g>
<g opacity="0.2">
<path d="M565.39,607.21a.48.48,0,0,1-.26-.07c-21.8-13.38-32-39.31-32.06-39.57a.49.49,0,0,1,.28-.64.51.51,0,0,1,.65.28c.1.26,10.15,25.89,31.65,39.08a.5.5,0,0,1,.16.68A.48.48,0,0,1,565.39,607.21Z"/>
</g>
<g opacity="0.2">
<path d="M539.54,579.76a.5.5,0,0,1-.3-.11.48.48,0,0,1-.09-.69l11.58-15.3c-1.66-1.84-8.92-11.38-1.87-30.56L535.74,524a.5.5,0,0,1-.13-.69.49.49,0,0,1,.69-.13l13.44,9.28a.49.49,0,0,1,.19.58c-7.75,20.67,1.7,30.09,1.8,30.18a.49.49,0,0,1,0,.66l-11.84,15.64A.51.51,0,0,1,539.54,579.76Z"/>
</g>
<path d="M546.47,497.71l-2.38,8.68s21.3,3.27,34.24-2.71C578.33,503.68,567.38,505.67,546.47,497.71Z" opacity="0.2"/>
<g opacity="0.2">
<path d="M547.44,591.1a.51.51,0,0,1-.32-.12,3.71,3.71,0,0,1-1-2.57c-.15-2.25.89-6.34,6.74-13a27.54,27.54,0,0,1,4.56-4c1.48-1.09,4.15-4.61,5.49-16a28.81,28.81,0,0,1,2.18-6.85,60.88,60.88,0,0,0,4.76-17.11c.75-6.11,2.92-11,6.46-14.52a.5.5,0,0,1,.7,0,.5.5,0,0,1,0,.71c-3.38,3.36-5.45,8-6.17,13.93A61.78,61.78,0,0,1,566,548.94a28.08,28.08,0,0,0-2.1,6.58c-1.32,11.18-3.93,15.25-5.89,16.69a26.46,26.46,0,0,0-4.4,3.89c-9.37,10.63-5.86,14.1-5.82,14.13a.5.5,0,0,1,0,.7A.52.52,0,0,1,547.44,591.1Z"/>
</g>
<path d="M510.64,535.54s-2.64,3.57,1.17,8.26c0,0-2.17,11.65,5.79,14.63,0,0,2.93.71,2-5.61l6.51,7a2.43,2.43,0,0,0,3.23.29h0a2.41,2.41,0,0,0,.26-3.65l-5.91-5.92a1.08,1.08,0,0,1,.28-1.74h0a1.08,1.08,0,0,1,1.19.15L536.94,559a2.19,2.19,0,0,0,2.93-.07h0a2.19,2.19,0,0,0,.07-3.13l-2.53-2.6s9,1.5,2.07-7.11l-7.58-9.6s1.64-.14,4.12,1.92c0,0,2.79,2.79,5-1.29a1.14,1.14,0,0,0-.06-1.18c-1.25-1.78-5.68-7.25-12.37-6.42,0,0-2-4.83-9-1.92C519.56,527.64,512.63,530.56,510.64,535.54Z" fill="#f9b499"/>
<line x1="537.41" y1="553.24" x2="529.43" y2="545.99" fill="none" stroke="#f7a48b" stroke-miterlimit="10"/>
<path d="M267.44,602l-2.3,3.62a.15.15,0,0,0,.1.23c2.33.37,22.08,3.61,32.37,8.29,0,0,4.31,1.77,15.1.88,0,0,14.76,1.11,16.76,6.09a14,14,0,0,0,3-5l1-7-16.93-2-23.89-3-16.92-4A15.75,15.75,0,0,0,267.44,602Z" fill="#ccc"/>
<path d="M303.58,594.27s-15.8,3-29.3,4c0,0-6.53,0-6.84,3.79,0,0,8.27-.8,27.18,6.17,0,0,8,3,15.93,2,0,0,19.91,0,21.9,6,0,0,5-3,7-11.95v-3.8l-27.87-3.16Z" fill="#0071f2" data-primary="true"/>
<path d="M326.48,582.32s-14.93,10.95-22.9,11.95l5.63,7.77s2.45,5.79,11.85,0c0,0,10.4-5.78,18.36,2.18l4-6S333.45,591.28,326.48,582.32Z" fill="#e6e6e6"/>
<path d="M504.09,605.47a12.35,12.35,0,0,1-3.63,9.22c-2.52,2.53-6.14,6.33-9.51,10.39a46.61,46.61,0,0,0-7.26,12,47.9,47.9,0,0,0-2.22,6.64c-1.86,7.27-6,17.9-13.87,15.36,0,0-7.49-2.41-7.43-13.58a26.11,26.11,0,0,1,7.16-17.48.74.74,0,0,1,.12-.13,43.53,43.53,0,0,1,20.73-12.51s6.53-1.88,8.52-4.87c0,0-11.09,5.28-30.93,3.14h-9.2L424,612.85l7.09-36.39s46.67-26.64,62.59,1.23C493.71,577.69,503.46,591.94,504.09,605.47Z" fill="#0071f2" data-primary="true"/>
<path d="M504.09,605.47a12.35,12.35,0,0,1-3.63,9.22c-2.52,2.53-6.14,6.33-9.51,10.39a46.61,46.61,0,0,0-7.26,12,47.9,47.9,0,0,0-2.22,6.64c-1.86,7.27-6,17.9-13.87,15.36,0,0-7.49-2.41-7.43-13.58a26.11,26.11,0,0,1,7.16-17.48.74.74,0,0,1,.12-.13,43.53,43.53,0,0,1,20.73-12.51s6.53-1.88,8.52-4.87c0,0-11.09,5.28-30.93,3.14h-9.2L424,612.85l7.09-36.39s46.67-26.64,62.59,1.23C493.71,577.69,503.46,591.94,504.09,605.47Z" fill="#fff" opacity="0.3"/>
<path d="M437.67,614.36c-4.59.31-14.4.69-13.64-1.85,0,0,8.26-1.61,13.09-5.94a16.7,16.7,0,0,1,2.69,4.72A2.38,2.38,0,0,1,437.67,614.36Z" fill="#fff"/>
<path d="M455.2,596.21c1.76,3,3.85,8.23-.25,11.36a78.65,78.65,0,0,0,11.33-8.73,5.18,5.18,0,0,0,1.28-1.93c.51-1.4.53-3.34-3.5-3.06h-7.51A1.57,1.57,0,0,0,455.2,596.21Z" fill="#fff"/>
<path d="M483.69,636.76a47.9,47.9,0,0,0-2.22,6.64c-1.86,7.27-6,17.9-13.87,15.36,0,0-7.49-2.4-7.43-13.57a26.09,26.09,0,0,1,7.16-17.48A31.75,31.75,0,0,1,483.69,636.76Z" fill="#fff"/>
<path d="M394.17,591.28s-10,7-4,12c0,0,17.92,16.92,40.81,7,0,0,17.57-7.26,10.28-18.07l-10.51-16.56a.89.89,0,0,0-1.51,0L424,584.12s-6-2.18-15.45,0c0,0-8.3-7.81-14.71-9.46a1.75,1.75,0,0,0-2.19,1.7C391.67,580,391.94,587.57,394.17,591.28Z" fill="#0071f2" data-primary="true"/>
<path d="M394.17,591.28s-10,7-4,12c0,0,17.92,16.92,40.81,7,0,0,17.57-7.26,10.28-18.07l-10.51-16.56a.89.89,0,0,0-1.51,0L424,584.12s-6-2.18-15.45,0c0,0-8.3-7.81-14.71-9.46a1.75,1.75,0,0,0-2.19,1.7C391.67,580,391.94,587.57,394.17,591.28Z" fill="#fff" opacity="0.3"/>
<path d="M408.58,584.12a30.15,30.15,0,0,1,15.55-.34l-.4.16c1.32-2.27,2.67-4.52,4-6.75a18.12,18.12,0,0,1,1.41-2.19,1.35,1.35,0,0,1,2,.28c3.55,5.47,7.05,11.11,10.51,16.62,2.83,3.28,2.17,8.45-.93,11.64a26.82,26.82,0,0,1-7.72,5.7c5.66-3.4,13.32-10,7.94-16.85-2.83-4.43-5.7-8.82-8.48-13.27l-2.08-3.32a.45.45,0,0,0-.63-.1c-1.82,2.82-3.57,5.79-5.4,8.61l-.15.22-.25-.07a32.44,32.44,0,0,0-15.36-.34Z" fill="#0071f2" data-primary="true"/>
<path d="M447.85,587.08c5.08,4.73,15.08,15.85,6.32,21.56l-.49-.8a120.79,120.79,0,0,0,13.55-10.43c4.54-3.46,9.81-6.38,15.53-7.12-5.57,1.2-10.63,4.2-15,7.78a101.49,101.49,0,0,1-13.58,10.57l-.49-.81c8-5-1.66-16.08-5.84-20.75Z" fill="#0071f2" data-primary="true"/>
<path d="M295.62,208v42.78s26.88,20.93,75.65,12c0,0,6,27.93,52.76,30.39V208Z" fill="#5d6166"/>
<path d="M451.91,208v85.14s21.9-2.51,36.83-10.48c0,0,9.95,36.83,76.65,37.83V208Z" fill="#5d6166"/>
<circle cx="450.91" cy="612.19" r="4.98" fill="#fff"/>
<g opacity="0.2">
<path d="M620.21,500.2a.5.5,0,0,1-.5-.5V477.16a.5.5,0,1,1,1,0V499.7A.49.49,0,0,1,620.21,500.2Z"/>
</g>
</svg>